# AST/ASF file generated using VICON BodyLanguage
# -----------------------------------------------
:version 1.10
:name VICON
:units
  mass 1.0
  length 0.45
  angle deg
:documentation
   .ast/.asf automatically generated from VICON data using
   VICON BodyBuilder and BodyLanguage model FoxedUp or BRILLIANT.MOD
:root
   order TX TY TZ RX RY RZ
   axis XYZ
   position 0 0 0  
   orientation 0 0 0 
:bonedata
  begin
     id 1 
     name lhipjoint
     direction 0.646821 -0.743844 0.168282 
     length 2.62284 
     axis 0 0 0  XYZ
  end
  begin
     id 2 
     name lfemur
     direction 0.34202 -0.939693 0  
     length 7.79098  
     axis 0 0 20  XYZ
    dof rx ry rz
    limits (-160.0 20.0)
           (-70.0 70.0)
           (-60.0 70.0)
  end
  begin
     id 3 
     name ltibia
     direction 0.34202 -0.939693 0   
     length 8.1986   
     axis 0 0 20   XYZ
    dof rx
    limits (-10.0 170.0)
  end
  begin
     id 4 
     name lfoot
     direction 0.0766762 -0.210666 0.974546   
     length 1.95107   
     axis -90 7.62852e-016 20   XYZ
    dof rx rz
    limits (-45.0 90.0)
           (-70.0 20.0)
  end
  begin
     id 5 
     name ltoes
     direction 1.53582e-011 -4.21539e-011 1   
     length 0.983514   
     axis -90 7.62852e-016 20   XYZ
    dof rx
    limits (-90.0 20.0)
  end
  begin
     id 6 
     name rhipjoint
     direction -0.658967 -0.733632 0.165972   
     length 2.65935  
     axis 0 0 0  XYZ 
  end
  begin
     id 7 
     name rfemur
     direction -0.34202 -0.939693 0   
     length 7.69405   
     axis 0 0 -20   XYZ
    dof rx ry rz
    limits (-160.0 20.0)
           (-70.0 70.0)
           (-70.0 60.0)
  end
  begin
     id 8 
     name rtibia
     direction -0.34202 -0.939693 0   
     length 8.15138   
     axis 0 0 -20   XYZ
    dof rx
    limits (-10.0 170.0)
 end
 begin
     id 9 
     name rfoot
     direction -0.0806473 -0.221577 0.971802   
     length 2.09362  
     axis -90 -7.62852e-016 -20   XYZ
    dof rx rz
    limits (-45.0 90.0)
           (-20.0 70.0)
  end
  begin
     id 10 
     name rtoes
     direction -1.53524e-011 -4.2203e-011 1   
     length 1.05224   
     axis -90 -7.62852e-016 -20   XYZ
    dof rx
    limits (-90.0 20.0)
  end
  begin
     id 11 
     name lowerback
     direction -0.0484271 0.997202 0.0569433   
     length 1.86801   
     axis 0 0 0   XYZ
    dof rx ry rz
    limits (-20.0 45.0)
           (-30.0 30.0)
           (-30.0 30.0)
  end
  begin
     id 12 
     name upperback
     direction 0.0148864 0.998882 0.0448682   
     length 1.86634   
     axis 0 0 0   XYZ
    dof rx ry rz
    limits (-20.0 45.0)
           (-30.0 30.0)
           (-30.0 30.0)
  end
  begin
     id 13 
     name thorax
     direction 0.0368776 0.99918 0.0167067   
     length 1.87554   
     axis 0 0 0   XYZ
    dof rx ry rz
    limits (-20.0 45.0)
           (-30.0 30.0)
           (-30.0 30.0)
  end
  begin
     id 14 
     name lowerneck
     direction -0.0200531 0.999751 0.00976032   
     length 1.82429   
     axis 0 0 0   XYZ
    dof rx ry rz
    limits (-20.0 45.0)
           (-30.0 30.0)
           (-30.0 30.0)
  end
  begin
     id 15 
     name upperneck
     direction 0.0113135 0.99728 -0.0728357   
     length 1.79098   
     axis 0 0 0   XYZ
    dof rx ry rz
    limits (-20.0 45.0)
           (-30.0 30.0)
           (-30.0 30.0)
  end
  begin
     id 16
     name head
     direction 0.00559662 0.999607 -0.0274604  
     length 1.88003  
     axis 0 0 0   XYZ
    dof rx ry rz
    limits (-20.0 45.0)
           (-30.0 30.0)
           (-30.0 30.0)
  end
  begin
     id 17 
     name lclavicle
     direction 0.931914 0.362632 -0.00585704  
     length 3.94155  
     axis 0 0 0   XYZ
    dof ry rz
    limits (-20.0 10.0)
           (0.0 20.0)
  end
  begin
     id 18 
     name lhumerus
     direction 1 -4.48969e-011 2.13403e-027   
     length 5.77473   
     axis 180 -30 -90   XYZ
    dof rx ry rz
    limits (-60.0 90.0)
           (-90.0 90.0)
           (-90.0 90.0)
  end
  begin
     id 19
     name lradius
     direction 1 -4.48969e-011 5.41017e-027   
     length 3.53732   
     axis 180 -30 -90   XYZ
    dof rx
    limits (-10.0 170.0)
  end
  begin
     id 20
     name lwrist
     direction 1 -4.48986e-011 1.36145e-026   
     length 1.76866   
     axis -8.75986e-015 90 90   XYZ
    dof ry
    limits (-180.0 0.0)
 end
  begin
     id 21 
     name lhand
     direction 1 -4.48703e-011 2.72291e-026   
     length 0.556229   
     axis -1.73745e-014 90 90   XYZ
    dof rx rz
    limits (-90.0 90.0)
           (-45.0 45.0)
  end
  begin
     id 22 
     name lfingers
     direction 1 -4.49204e-011 5.44582e-026   
     length 0.448446   
     axis -3.4749e-014 90 90   XYZ
    dof rx
    limits (0.0 90.0)
  end
  begin
     id 23
     name lthumb
     direction 0.707107 -6.34773e-011 0.707107   
     length 0.643881   
     axis -90 45 2.85299e-015   XYZ
    dof rx rz
    limits (-45.0 45.0)
           (-45.0 45.0)
  end
  begin
     id 24 
     name rclavicle
     direction -0.951782 0.300043 0.0639076   
     length 3.96398  
     axis 0 0 0   XYZ 
    dof ry rz
    limits (-10.0 20.0)
           (-20.0 0.0)
  end
  begin
     id 25 
     name rhumerus
     direction -1 -4.48967e-011 6.14867e-028  
     length 5.79581   
     axis 180 30 90   XYZ
    dof rx ry rz
    limits (-90.0 60.0)
           (-90.0 90.0)
           (-90.0 90.0)
  end
  begin
     id 26 
     name rradius
     direction -1 -4.48966e-011 9.26908e-027   
     length 3.37412   
     axis 180 30 90   XYZ
    dof rx
    limits (-10.0 170.0)
  end
  begin
     id 27 
     name rwrist
     direction -1 -4.48999e-011 1.36145e-026   
     length 1.68706   
     axis -8.75986e-015 -90 -90   XYZ
    dof ry
    limits (-180.0 0.0)
  end
  begin
     id 28
     name rhand
     direction -1 -4.49032e-011 2.72291e-026   
     length 0.680496   
     axis -1.73745e-014 -90 -90   XYZ
    dof rx rz
    limits (-90.0 90.0)
           (-45.0 45.0)
  end
  begin
     id 29
     name rfingers
     direction -1 -4.48876e-011 5.44582e-026   
     length 0.548633   
     axis -3.4749e-014 -90 -90   XYZ
    dof rx
    limits (0.0 90.0)
  end
  begin
     id 30
     name rthumb
     direction -0.707107 -6.34964e-011 0.707107   
     length 0.787731   
     axis -90 -45 -2.85299e-015   XYZ
    dof rx rz
    limits (-45.0 45.0)
           (-45.0 45.0)
  end
:hierarchy
  begin
    root lhipjoint rhipjoint lowerback
    lhipjoint lfemur
    lfemur ltibia
    ltibia lfoot
    lfoot ltoes
    rhipjoint rfemur
    rfemur rtibia
    rtibia rfoot
    rfoot rtoes
    lowerback upperback
    upperback thorax
    thorax lowerneck lclavicle rclavicle
    lowerneck upperneck
    upperneck head
    lclavicle lhumerus
    lhumerus lradius
    lradius lwrist
    lwrist lhand lthumb
    lhand lfingers
    rclavicle rhumerus
    rhumerus rradius
    rradius rwrist
    rwrist rhand rthumb
    rhand rfingers
  end

#!OML:ASF H:\Terrain\Patient Classification 1\PaulMetrics\March1\PaulMetrics.ASF
:FULLY-SPECIFIED
:DEGREES
32
root 26.2848 17.9391 -19.3839 14.859 -12.8291 3.06984
lowerback -3.63234 -1.44074 -5.71415
upperback -5.22824 -1.83973 1.41509
thorax -3.15849 -0.701818 4.65523
lowerneck -5.45873 2.75531 0.109187
upperneck 4.77655 3.89839 -3.80253
head 2.54856 1.82122 -1.08459
rclavicle -1.63003e-014 -8.34896e-015
rhumerus -56.5415 19.794 -99.0578
rradius 43.0443
rwrist -10.1884
rhand -10.2958 -33.2106
rfingers 7.12502
rthumb 15.6988 -62.5938
lclavicle -1.63003e-014 -8.34896e-015
lhumerus -39.6567 -26.314 88.1397
lradius 77.3031
lwrist 12.7278
lhand -24.0969 -8.57236
lfingers 7.12502
lthumb 2.3838 21.3941
rfemur -40.7521 14.4849 8.98269
rtibia 8.99462
rfoot -10.3082 -27.8084
rtoes -17.6362
lfemur -5.1094 -3.30309 -25.6008
ltibia 16.6731
lfoot -19.8431 -1.07772
ltoes -19.2477
33
root 26.2294 17.9325 -19.2387 14.8236 -12.6181 3.18099
lowerback -3.70308 -1.39493 -5.68539
upperback -5.08684 -1.77171 1.34899
thorax -2.98106 -0.678616 4.56652
lowerneck -5.65525 2.58739 0.149454
upperneck 4.8163 3.67303 -3.78406
head 2.59394 1.7078 -1.09272
rclavicle -4.13721e-014 2.66371e-014
rhumerus -55.9232 19.5011 -98.7417
rradius 43.0755
rwrist -9.8519
rhand -10.4019 -32.7741
rfingers 7.12502
rthumb 15.5966 -62.1653
lclavicle -4.13721e-014 2.66371e-014
lhumerus -39.4667 -26.8142 88.3866
lradius 77.3292
lwrist 12.6709
lhand -24.3178 -8.77089
lfingers 7.12502
lthumb 2.17042 21.1978
rfemur -40.5454 13.8664 9.41846
rtibia 8.47636
rfoot -8.6771 -27.8316
rtoes -22.6699
lfemur -4.48205 -3.41987 -25.5583
ltibia 16.4715
lfoot -19.2341 -1.94686
ltoes -17.9949
34
root 26.1672 17.9202 -19.0916 14.7691 -12.3439 3.11712
lowerback -3.66553 -1.407 -5.57026
upperback -4.97057 -1.78768 1.36966
thorax -2.87996 -0.695624 4.52159
lowerneck -5.6144 2.51074 0.223458
upperneck 4.66551 3.56255 -3.8465
head 2.53682 1.65494 -1.13081
rclavicle 1.70955e-014 3.97569e-016
rhumerus -55.5913 19.5284 -98.6041
rradius 43.2714
rwrist -9.88561
rhand -10.5193 -32.9731
rfingers 7.12502
rthumb 15.4835 -62.373
lclavicle 1.70955e-014 3.97569e-016
lhumerus -39.7048 -26.8661 88.5801
lradius 77.9923
lwrist 12.4565
lhand -24.2267 -8.50121
lfingers 7.12502
lthumb 2.2584 21.4666
rfemur -40.5002 13.2234 10.0271
rtibia 8.56912
rfoot -8.19628 -27.6518
rtoes -23.8012
lfemur -3.86082 -3.49793 -25.2887
ltibia 16.4171
lfoot -18.6638 -2.55375
ltoes -17.5204
35
root 26.108 17.9056 -18.936 14.696 -12.0088 3.11695
lowerback -3.49052 -1.45245 -5.48593
upperback -5.03463 -1.85975 1.42656
thorax -3.03675 -0.727009 4.53806
lowerneck -5.3726 2.47032 0.145596
upperneck 4.64302 3.50935 -3.81397
head 2.48058 1.63106 -1.11116
rclavicle 1.46604e-014 1.23246e-014
rhumerus -55.5798 19.6218 -98.5277
rradius 43.5114
rwrist -10.1329
rhand -10.8335 -33.2999
rfingers 7.12502
rthumb 15.1809 -62.723
lclavicle 1.46604e-014 1.23246e-014
lhumerus -40.272 -26.8151 88.9882
lradius 78.4755
lwrist 12.1571
lhand -23.6328 -8.73568
lfingers 7.12502
lthumb 2.83197 21.2253
rfemur -40.5227 12.488 10.5702
rtibia 9.11883
rfoot -8.67892 -27.1882
rtoes -20.828
lfemur -3.30744 -3.22671 -25.0472
ltibia 16.5339
lfoot -18.0004 -3.33546
ltoes -17.7376
36
root 26.0511 17.8946 -18.7755 14.5864 -11.6866 3.28055
lowerback -3.47187 -1.47955 -5.50573
upperback -5.03409 -1.89586 1.4512
thorax -3.04123 -0.743693 4.57488
lowerneck -5.1355 2.38906 -0.0703142
upperneck 4.53267 3.40494 -3.72496
head 2.39052 1.58209 -1.05128
rclavicle 4.48259e-014 9.93923e-015
rhumerus -55.4545 19.5298 -98.2356
rradius 43.7535
rwrist -10.1258
rhand -11.0839 -33.207
rfingers 7.12502
rthumb 14.9397 -62.6482
lclavicle 4.48259e-014 9.93923e-015
lhumerus -40.5579 -27.1191 89.4762
lradius 78.1502
lwrist 11.9953
lhand -23.7059 -9.77997
lfingers 7.12502
lthumb 2.76143 20.1819
rfemur -40.6035 11.7607 10.9967
rtibia 10.1232
rfoot -7.84787 -26.593
rtoes -19.7681
lfemur -2.83928 -3.23611 -24.984
ltibia 16.7833
lfoot -17.2736 -3.98196
ltoes -17.1195
37
root 25.988 17.8851 -18.6165 14.3618 -11.5044 3.36058
lowerback -3.45668 -1.46058 -5.48732
upperback -4.85982 -1.86661 1.45605
thorax -2.87103 -0.738456 4.56701
lowerneck -5.20611 2.29015 -0.272624
upperneck 4.50988 3.28009 -3.59075
head 2.38569 1.51996 -0.977209
rclavicle -8.69683e-015 -1.94809e-014
rhumerus -55.1631 19.4747 -97.9499
rradius 43.9951
rwrist -10.0113
rhand -11.0515 -33.0316
rfingers 7.12502
rthumb 14.9709 -62.4705
lclavicle -8.69683e-015 -1.94809e-014
lhumerus -40.6267 -27.3745 89.8582
lradius 77.6716
lwrist 12.0916
lhand -24.4454 -10.4136
lfingers 7.12502
lthumb 2.0472 19.5564
rfemur -40.6122 10.6898 12.0161
rtibia 11.5973
rfoot -6.7167 -25.4954
rtoes -21.1177
lfemur -2.25193 -3.6998 -24.9004
ltibia 17.065
lfoot -16.5975 -3.98588
ltoes -15.3641
38
root 25.9233 17.8762 -18.4599 14.2057 -11.552 3.45287
lowerback -3.22756 -1.4131 -5.67175
upperback -4.89565 -1.81268 1.56656
thorax -3.03717 -0.697024 4.79462
lowerneck -5.26496 2.23408 -0.419618
upperneck 4.8069 3.23289 -3.6846
head 2.49387 1.48552 -0.983101
rclavicle -5.17586e-014 -3.18055e-015
rhumerus -55.0439 19.6532 -97.7693
rradius 43.9847
rwrist -10.053
rhand -11.025 -33.0807
rfingers 7.12502
rthumb 14.9965 -62.5177
lclavicle -5.17586e-014 -3.18055e-015
lhumerus -41.3899 -27.0708 90.4433
lradius 78.1565
lwrist 12.1693
lhand -24.3029 -10.1377
lfingers 7.12502
lthumb 2.18486 19.8309
rfemur -40.7894 9.61436 13.0734
rtibia 13.3309
rfoot -6.12501 -24.2791
rtoes -23.3491
lfemur -1.68546 -3.78841 -24.898
ltibia 17.3281
lfoot -16.1516 -3.51652
ltoes -17.8619
39
root 25.8576 17.8662 -18.2942 14.0642 -11.5356 3.48602
lowerback -3.10508 -1.34299 -5.78595
upperback -4.93334 -1.72317 1.68482
thorax -3.15181 -0.641224 4.98824
lowerneck -5.11439 2.19142 -0.285355
upperneck 4.95873 3.18991 -4.03591
head 2.5274 1.45488 -1.12272
rclavicle 2.15184e-014 1.59028e-015
rhumerus -54.8899 19.7636 -97.5391
rradius 43.947
rwrist -10.1077
rhand -11.0738 -33.5084
rfingers 7.12502
rthumb 14.9494 -62.9489
lclavicle 2.15184e-014 1.59028e-015
lhumerus -42.2573 -27.2813 91.064
lradius 78.6985
lwrist 12.4662
lhand -23.9297 -9.95395
lfingers 7.12502
lthumb 2.54528 20.0106
rfemur -40.9264 8.49568 14.1926
rtibia 15.084
rfoot -5.11185 -23.1183
rtoes -25.3498
lfemur -1.14332 -3.47646 -24.7769
ltibia 17.7061
lfoot -15.6284 -3.55953
ltoes -21.6421
40
root 25.7875 17.8678 -18.1173 13.8625 -11.3266 3.43016
lowerback -3.24464 -1.27831 -5.57478
upperback -4.73585 -1.62619 1.64634
thorax -2.88324 -0.613489 4.82241
lowerneck -5.10341 2.14488 -0.0994194
upperneck 4.8812 3.11466 -4.09926
head 2.50332 1.42061 -1.17849
rclavicle -1.85367e-014 -1.03368e-014
rhumerus -54.5477 19.6865 -97.3369
rradius 44.157
rwrist -10.0959
rhand -10.9803 -33.9944
rfingers 7.12502
rthumb 15.0395 -63.4282
lclavicle -1.85367e-014 -1.03368e-014
lhumerus -42.1378 -28.3414 91.4312
lradius 77.7207
lwrist 12.9397
lhand -24.7671 -10.5181
lfingers 7.12502
lthumb 1.7365 19.4545
rfemur -40.9512 7.69801 15.1079
rtibia 16.8199
rfoot -3.77708 -22.6688
rtoes -25.0025
lfemur -0.646031 -3.27695 -24.4846
ltibia 18.2867
lfoot -14.7218 -4.08827
ltoes -22.2906
41
root 25.722 17.8722 -17.9473 13.8981 -11.1553 3.31618
lowerback -3.42841 -1.2035 -5.18072
upperback -4.66064 -1.52012 1.58893
thorax -2.72181 -0.58029 4.53541
lowerneck -5.08276 2.10228 -0.0732449
upperneck 4.79196 3.04518 -3.98072
head 2.46581 1.39197 -1.1474
rclavicle 1.66482e-014 1.19271e-014
rhumerus -54.2466 19.5501 -97.2133
rradius 44.3215
rwrist -10.2658
rhand -11.292 -33.7864
rfingers 7.12502
rthumb 14.7392 -63.2424
lclavicle 1.66482e-014 1.19271e-014
lhumerus -41.9871 -28.5651 91.7538
lradius 76.4846
lwrist 12.5694
lhand -25.4392 -10.781
lfingers 7.12502
lthumb 1.08741 19.1959
rfemur -41.3494 7.23694 15.711
rtibia 18.5736
rfoot -2.74721 -22.5677
rtoes -23.7458
lfemur -0.548948 -3.25272 -24.1382
ltibia 19.0411
lfoot -13.5458 -4.60558
ltoes -19.1442
42
root 25.659 17.8688 -17.7859 13.972 -11.0008 3.05238
lowerback -3.36993 -1.14765 -4.7741
upperback -4.68997 -1.45161 1.71051
thorax -2.79665 -0.553579 4.43511
lowerneck -5.08459 2.09246 -0.276338
upperneck 4.86307 3.04308 -3.8687
head 2.48299 1.38935 -1.07606
rclavicle 6.90777e-015 8.74653e-015
rhumerus -54.0467 19.5904 -97.0404
rradius 44.4229
rwrist -10.5716
rhand -11.6842 -33.5936
rfingers 7.12502
rthumb 14.3613 -63.0768
lclavicle 6.90777e-015 8.74653e-015
lhumerus -42.4097 -28.0826 92.2499
lradius 75.8915
lwrist 11.9986
lhand -25.109 -10.7489
lfingers 7.12502
lthumb 1.40632 19.2262
rfemur -41.7914 6.36445 16.6935
rtibia 20.2974
rfoot -2.2737 -21.6173
rtoes -23.1192
lfemur -0.569727 -3.2176 -23.6388
ltibia 19.9943
lfoot -12.287 -5.0195
ltoes -15.9527
